<svg xmlns="http://www.w3.org/2000/svg" viewBox="0 0 200 200" role="img" aria-labelledby="title desc">
  <title id="title">Strivex yellow mark</title>
  <desc id="desc">A yellow shield and barbell Strivex icon.</desc>
  <g fill="none" stroke="#D9FF3D" stroke-linecap="round" stroke-linejoin="round">
    <g stroke-width="6">
      <path d="M63 33 48 38 37 51 39 66 48 77 61 83" />
      <path d="M137 33 152 38 163 51 161 66 152 77 139 83" />
      <path d="M65 33 100 28 135 33" />
      <path d="M54 79 70 96 100 106 130 96 146 79" />
      <path d="M71 40 100 51 129 40" />
      <path d="M76 51 100 60 124 51" />
      <path d="M64 60 100 97 136 60" />
      <path d="M100 28 100 98" />
      <path d="M42 74 17 74" />
      <path d="M158 74 183 74" />
      <path d="M32 53 24 53 20 95 32 95" />
      <path d="M24 47 16 47 12 101 24 101" />
      <path d="M168 53 176 53 180 95 168 95" />
      <path d="M176 47 184 47 188 101 176 101" />
    </g>
    <g stroke-width="4">
      <path d="M87 29 93 37 100 25 107 37 113 29" />
      <path d="M90 37 100 44 110 37" />
      <circle cx="100" cy="23" r="3" fill="#D9FF3D" stroke="none" />
    </g>
  </g>
  <path d="M108 68c0-6-5-10-12-10-8 0-13 4-13 10 0 6 4 8 11 10l6 1c4 1 5 2 5 4 0 3-3 4-7 4-5 0-8-2-10-5l-8 4c4 7 10 10 19 10 12 0 20-6 20-15 0-7-4-11-13-14l-6-1c-4-1-5-2-5-4 0-2 2-4 6-4 4 0 7 2 9 5l8-5Z" fill="#D9FF3D"/>
</svg>
